<svg width="226" height="32" viewBox="0 0 226 32" fill="none" xmlns="http://www.w3.org/2000/svg">
<rect width="226" height="32" rx="16" fill="#F6F6F4"/>
<path d="M35.8691 22L39.9971 10.8H41.8531L45.9491 22H44.1571L43.1971 19.264H38.6211L37.6611 22H35.8691ZM39.1011 17.92H42.7171L40.9091 12.816L39.1011 17.92ZM50.615 22.192C49.6123 22.192 48.7857 21.9467 48.135 21.456C47.4843 20.9653 47.111 20.3147 47.015 19.504H48.727C48.8123 19.8667 49.015 20.1813 49.335 20.448C49.655 20.704 50.0763 20.832 50.599 20.832C51.111 20.832 51.4843 20.7253 51.719 20.512C51.9537 20.2987 52.071 20.0533 52.071 19.776C52.071 19.3707 51.9057 19.0987 51.575 18.96C51.255 18.8107 50.807 18.6773 50.231 18.56C49.783 18.464 49.335 18.336 48.887 18.176C48.4497 18.016 48.0817 17.792 47.783 17.504C47.495 17.2053 47.351 16.8053 47.351 16.304C47.351 15.6107 47.6177 15.0347 48.151 14.576C48.6843 14.1067 49.431 13.872 50.391 13.872C51.2763 13.872 51.991 14.0853 52.535 14.512C53.0897 14.9387 53.415 15.5413 53.511 16.32H51.879C51.8257 15.9787 51.6657 15.712 51.399 15.52C51.143 15.328 50.7963 15.232 50.359 15.232C49.9323 15.232 49.6017 15.3227 49.367 15.504C49.1323 15.6747 49.015 15.8987 49.015 16.176C49.015 16.4533 49.175 16.672 49.495 16.832C49.8257 16.992 50.2577 17.136 50.791 17.264C51.3243 17.3813 51.815 17.52 52.263 17.68C52.7217 17.8293 53.0897 18.0533 53.367 18.352C53.6443 18.6507 53.783 19.088 53.783 19.664C53.7937 20.3893 53.511 20.992 52.935 21.472C52.3697 21.952 51.5963 22.192 50.615 22.192ZM58.8025 22.192C57.7998 22.192 56.9732 21.9467 56.3225 21.456C55.6718 20.9653 55.2985 20.3147 55.2025 19.504H56.9145C56.9998 19.8667 57.2025 20.1813 57.5225 20.448C57.8425 20.704 58.2638 20.832 58.7865 20.832C59.2985 20.832 59.6718 20.7253 59.9065 20.512C60.1412 20.2987 60.2585 20.0533 60.2585 19.776C60.2585 19.3707 60.0932 19.0987 59.7625 18.96C59.4425 18.8107 58.9945 18.6773 58.4185 18.56C57.9705 18.464 57.5225 18.336 57.0745 18.176C56.6372 18.016 56.2692 17.792 55.9705 17.504C55.6825 17.2053 55.5385 16.8053 55.5385 16.304C55.5385 15.6107 55.8052 15.0347 56.3385 14.576C56.8718 14.1067 57.6185 13.872 58.5785 13.872C59.4638 13.872 60.1785 14.0853 60.7225 14.512C61.2772 14.9387 61.6025 15.5413 61.6985 16.32H60.0665C60.0132 15.9787 59.8532 15.712 59.5865 15.52C59.3305 15.328 58.9838 15.232 58.5465 15.232C58.1198 15.232 57.7892 15.3227 57.5545 15.504C57.3198 15.6747 57.2025 15.8987 57.2025 16.176C57.2025 16.4533 57.3625 16.672 57.6825 16.832C58.0132 16.992 58.4452 17.136 58.9785 17.264C59.5118 17.3813 60.0025 17.52 60.4505 17.68C60.9092 17.8293 61.2772 18.0533 61.5545 18.352C61.8318 18.6507 61.9705 19.088 61.9705 19.664C61.9812 20.3893 61.6985 20.992 61.1225 21.472C60.5572 21.952 59.7838 22.192 58.8025 22.192ZM64.782 12.56C64.462 12.56 64.1953 12.464 63.982 12.272C63.7793 12.0693 63.678 11.8187 63.678 11.52C63.678 11.2213 63.7793 10.976 63.982 10.784C64.1953 10.5813 64.462 10.48 64.782 10.48C65.102 10.48 65.3633 10.5813 65.566 10.784C65.7793 10.976 65.886 11.2213 65.886 11.52C65.886 11.8187 65.7793 12.0693 65.566 12.272C65.3633 12.464 65.102 12.56 64.782 12.56ZM63.934 22V14.064H65.63V22H63.934ZM71.1169 19.568C70.7009 19.568 70.3169 19.52 69.9649 19.424L69.2769 20.096C69.3942 20.1707 69.5382 20.2347 69.7089 20.288C69.8795 20.3413 70.1195 20.3893 70.4289 20.432C70.7382 20.4747 71.1595 20.5173 71.6929 20.56C72.7489 20.656 73.5115 20.912 73.9809 21.328C74.4502 21.7333 74.6849 22.2773 74.6849 22.96C74.6849 23.4293 74.5569 23.872 74.3009 24.288C74.0555 24.7147 73.6662 25.056 73.1329 25.312C72.6102 25.5787 71.9382 25.712 71.1169 25.712C70.0075 25.712 69.1062 25.4987 68.4129 25.072C67.7302 24.656 67.3889 24.0213 67.3889 23.168C67.3889 22.8373 67.4742 22.5067 67.6449 22.176C67.8262 21.856 68.1089 21.552 68.4929 21.264C68.2689 21.168 68.0715 21.0667 67.9009 20.96C67.7409 20.8427 67.5969 20.7253 67.4689 20.608V20.224L68.8449 18.816C68.2262 18.2827 67.9169 17.584 67.9169 16.72C67.9169 16.1973 68.0395 15.7227 68.2849 15.296C68.5409 14.8587 68.9089 14.512 69.3889 14.256C69.8689 14 70.4449 13.872 71.1169 13.872C71.5649 13.872 71.9809 13.936 72.3649 14.064H75.3249V15.184L73.9169 15.264C74.1729 15.7013 74.3009 16.1867 74.3009 16.72C74.3009 17.2533 74.1729 17.7333 73.9169 18.16C73.6715 18.5867 73.3089 18.928 72.8289 19.184C72.3595 19.44 71.7889 19.568 71.1169 19.568ZM71.1169 18.24C71.6075 18.24 72.0022 18.112 72.3009 17.856C72.6102 17.5893 72.7649 17.216 72.7649 16.736C72.7649 16.2453 72.6102 15.872 72.3009 15.616C72.0022 15.36 71.6075 15.232 71.1169 15.232C70.6155 15.232 70.2102 15.36 69.9009 15.616C69.6022 15.872 69.4529 16.2453 69.4529 16.736C69.4529 17.216 69.6022 17.5893 69.9009 17.856C70.2102 18.112 70.6155 18.24 71.1169 18.24ZM68.9889 23.008C68.9889 23.4667 69.1915 23.808 69.5969 24.032C70.0022 24.2667 70.5089 24.384 71.1169 24.384C71.7035 24.384 72.1782 24.256 72.5409 24C72.9035 23.7547 73.0849 23.424 73.0849 23.008C73.0849 22.6987 72.9622 22.432 72.7169 22.208C72.4715 21.9947 72.0075 21.8613 71.3249 21.808C70.8129 21.776 70.3595 21.728 69.9649 21.664C69.5915 21.8667 69.3355 22.0853 69.1969 22.32C69.0582 22.5547 68.9889 22.784 68.9889 23.008ZM76.8376 22V14.064H78.3416L78.4696 15.456C78.715 14.9653 79.0723 14.5813 79.5416 14.304C80.0216 14.016 80.571 13.872 81.1896 13.872C82.1496 13.872 82.9016 14.1707 83.4456 14.768C84.0003 15.3653 84.2776 16.256 84.2776 17.44V22H82.5976V17.616C82.5976 16.08 81.9683 15.312 80.7096 15.312C80.0803 15.312 79.5576 15.536 79.1416 15.984C78.7363 16.432 78.5336 17.072 78.5336 17.904V22H76.8376ZM90.3064 22V14.064H91.8104L91.9544 15.184C92.2104 14.7787 92.5464 14.4587 92.9624 14.224C93.389 13.9893 93.8797 13.872 94.4344 13.872C95.693 13.872 96.5677 14.368 97.0584 15.36C97.3464 14.9013 97.7304 14.5387 98.2104 14.272C98.701 14.0053 99.229 13.872 99.7944 13.872C100.786 13.872 101.565 14.1707 102.13 14.768C102.696 15.3653 102.978 16.256 102.978 17.44V22H101.282V17.616C101.282 16.08 100.696 15.312 99.5224 15.312C98.925 15.312 98.4344 15.536 98.0504 15.984C97.677 16.432 97.4904 17.072 97.4904 17.904V22H95.7944V17.616C95.7944 16.08 95.2024 15.312 94.0184 15.312C93.4317 15.312 92.9464 15.536 92.5624 15.984C92.189 16.432 92.0024 17.072 92.0024 17.904V22H90.3064ZM105.641 25.52L107.545 21.344H107.081L103.945 14.064H105.785L108.217 19.936L110.761 14.064H112.553L107.433 25.52H105.641ZM116.693 22.192C115.69 22.192 114.864 21.9467 114.213 21.456C113.562 20.9653 113.189 20.3147 113.093 19.504H114.805C114.89 19.8667 115.093 20.1813 115.413 20.448C115.733 20.704 116.154 20.832 116.677 20.832C117.189 20.832 117.562 20.7253 117.797 20.512C118.032 20.2987 118.149 20.0533 118.149 19.776C118.149 19.3707 117.984 19.0987 117.653 18.96C117.333 18.8107 116.885 18.6773 116.309 18.56C115.861 18.464 115.413 18.336 114.965 18.176C114.528 18.016 114.16 17.792 113.861 17.504C113.573 17.2053 113.429 16.8053 113.429 16.304C113.429 15.6107 113.696 15.0347 114.229 14.576C114.762 14.1067 115.509 13.872 116.469 13.872C117.354 13.872 118.069 14.0853 118.613 14.512C119.168 14.9387 119.493 15.5413 119.589 16.32H117.957C117.904 15.9787 117.744 15.712 117.477 15.52C117.221 15.328 116.874 15.232 116.437 15.232C116.01 15.232 115.68 15.3227 115.445 15.504C115.21 15.6747 115.093 15.8987 115.093 16.176C115.093 16.4533 115.253 16.672 115.573 16.832C115.904 16.992 116.336 17.136 116.869 17.264C117.402 17.3813 117.893 17.52 118.341 17.68C118.8 17.8293 119.168 18.0533 119.445 18.352C119.722 18.6507 119.861 19.088 119.861 19.664C119.872 20.3893 119.589 20.992 119.013 21.472C118.448 21.952 117.674 22.192 116.693 22.192ZM125.425 22.192C124.646 22.192 123.953 22.0213 123.345 21.68C122.747 21.328 122.278 20.8427 121.937 20.224C121.595 19.6053 121.425 18.8853 121.425 18.064C121.425 17.232 121.59 16.5013 121.921 15.872C122.262 15.2427 122.731 14.752 123.329 14.4C123.937 14.048 124.641 13.872 125.441 13.872C126.219 13.872 126.897 14.048 127.473 14.4C128.049 14.7413 128.497 15.2 128.817 15.776C129.137 16.352 129.297 16.9867 129.297 17.68C129.297 17.7867 129.291 17.904 129.281 18.032C129.281 18.1493 129.275 18.2827 129.265 18.432H123.089C123.142 19.2 123.393 19.7867 123.841 20.192C124.299 20.5867 124.827 20.784 125.425 20.784C125.905 20.784 126.305 20.6773 126.625 20.464C126.955 20.24 127.201 19.9413 127.361 19.568H129.057C128.843 20.3147 128.417 20.9387 127.777 21.44C127.147 21.9413 126.363 22.192 125.425 22.192ZM125.425 15.264C124.859 15.264 124.358 15.4347 123.921 15.776C123.483 16.1067 123.217 16.608 123.121 17.28H127.601C127.569 16.6613 127.35 16.1707 126.945 15.808C126.539 15.4453 126.033 15.264 125.425 15.264ZM131.056 22V10.48H132.752V22H131.056ZM135.3 22V15.488H134.164V14.064H135.3V12.912C135.3 12.048 135.513 11.4293 135.94 11.056C136.377 10.672 136.991 10.48 137.78 10.48H138.612V11.92H138.036C137.663 11.92 137.396 12 137.236 12.16C137.076 12.3093 136.996 12.5653 136.996 12.928V14.064H138.82V15.488H136.996V22H135.3ZM147.151 22.192C146.479 22.192 145.924 22.08 145.487 21.856C145.049 21.632 144.724 21.3387 144.511 20.976C144.297 20.6027 144.191 20.1973 144.191 19.76C144.191 18.992 144.489 18.384 145.087 17.936C145.684 17.488 146.537 17.264 147.647 17.264H149.727V17.12C149.727 16.5013 149.556 16.0373 149.215 15.728C148.884 15.4187 148.452 15.264 147.919 15.264C147.449 15.264 147.039 15.3813 146.687 15.616C146.345 15.84 146.137 16.176 146.063 16.624H144.367C144.42 16.048 144.612 15.5573 144.943 15.152C145.284 14.736 145.711 14.4213 146.223 14.208C146.745 13.984 147.316 13.872 147.935 13.872C149.044 13.872 149.903 14.1653 150.511 14.752C151.119 15.328 151.423 16.1173 151.423 17.12V22H149.951L149.807 20.64C149.583 21.0773 149.257 21.4453 148.831 21.744C148.404 22.0427 147.844 22.192 147.151 22.192ZM147.487 20.816C147.945 20.816 148.329 20.7093 148.639 20.496C148.959 20.272 149.204 19.9787 149.375 19.616C149.556 19.2533 149.668 18.8533 149.711 18.416H147.823C147.151 18.416 146.671 18.5333 146.383 18.768C146.105 19.0027 145.967 19.296 145.967 19.648C145.967 20.0107 146.1 20.2987 146.367 20.512C146.644 20.7147 147.017 20.816 147.487 20.816ZM153.4 22V14.064H154.904L155.032 15.456C155.277 14.9653 155.635 14.5813 156.104 14.304C156.584 14.016 157.133 13.872 157.752 13.872C158.712 13.872 159.464 14.1707 160.008 14.768C160.563 15.3653 160.84 16.256 160.84 17.44V22H159.16V17.616C159.16 16.08 158.531 15.312 157.272 15.312C156.643 15.312 156.12 15.536 155.704 15.984C155.299 16.432 155.096 17.072 155.096 17.904V22H153.4ZM166.454 22.192C165.686 22.192 165.008 22.0107 164.422 21.648C163.835 21.2853 163.376 20.7893 163.046 20.16C162.715 19.5307 162.55 18.816 162.55 18.016C162.55 17.216 162.715 16.5067 163.046 15.888C163.376 15.2587 163.835 14.768 164.422 14.416C165.019 14.0533 165.702 13.872 166.47 13.872C167.099 13.872 167.648 13.9947 168.118 14.24C168.598 14.4853 168.971 14.832 169.238 15.28V10.48H170.934V22H169.414L169.238 20.768C168.982 21.1413 168.63 21.472 168.182 21.76C167.734 22.048 167.158 22.192 166.454 22.192ZM166.758 20.72C167.483 20.72 168.075 20.4693 168.534 19.968C169.003 19.4667 169.238 18.8213 169.238 18.032C169.238 17.232 169.003 16.5867 168.534 16.096C168.075 15.5947 167.483 15.344 166.758 15.344C166.032 15.344 165.435 15.5947 164.966 16.096C164.496 16.5867 164.262 17.232 164.262 18.032C164.262 18.5547 164.368 19.0187 164.582 19.424C164.795 19.8293 165.088 20.1493 165.462 20.384C165.846 20.608 166.278 20.72 166.758 20.72ZM177.103 22V14.064H178.623L178.767 15.568C179.045 15.0453 179.429 14.6347 179.919 14.336C180.421 14.0267 181.023 13.872 181.727 13.872V15.648H181.263C180.794 15.648 180.373 15.728 179.999 15.888C179.637 16.0373 179.343 16.2987 179.119 16.672C178.906 17.0347 178.799 17.5413 178.799 18.192V22H177.103ZM186.675 22.192C185.896 22.192 185.203 22.0213 184.595 21.68C183.997 21.328 183.528 20.8427 183.187 20.224C182.845 19.6053 182.675 18.8853 182.675 18.064C182.675 17.232 182.84 16.5013 183.171 15.872C183.512 15.2427 183.981 14.752 184.579 14.4C185.187 14.048 185.891 13.872 186.691 13.872C187.469 13.872 188.147 14.048 188.723 14.4C189.299 14.7413 189.747 15.2 190.067 15.776C190.387 16.352 190.547 16.9867 190.547 17.68C190.547 17.7867 190.541 17.904 190.531 18.032C190.531 18.1493 190.525 18.2827 190.515 18.432H184.339C184.392 19.2 184.643 19.7867 185.091 20.192C185.549 20.5867 186.077 20.784 186.675 20.784C187.155 20.784 187.555 20.6773 187.875 20.464C188.205 20.24 188.451 19.9413 188.611 19.568H190.307C190.093 20.3147 189.667 20.9387 189.027 21.44C188.397 21.9413 187.613 22.192 186.675 22.192ZM186.675 15.264C186.109 15.264 185.608 15.4347 185.171 15.776C184.733 16.1067 184.467 16.608 184.371 17.28H188.851C188.819 16.6613 188.6 16.1707 188.195 15.808C187.789 15.4453 187.283 15.264 186.675 15.264ZM192.306 25.52V14.064H193.826L194.002 15.296C194.258 14.9227 194.61 14.592 195.058 14.304C195.506 14.016 196.082 13.872 196.786 13.872C197.554 13.872 198.232 14.0533 198.818 14.416C199.405 14.7787 199.864 15.2747 200.194 15.904C200.536 16.5333 200.706 17.248 200.706 18.048C200.706 18.848 200.536 19.5627 200.194 20.192C199.864 20.8107 199.405 21.3013 198.818 21.664C198.232 22.016 197.549 22.192 196.77 22.192C196.152 22.192 195.602 22.0693 195.122 21.824C194.653 21.5787 194.28 21.232 194.002 20.784V25.52H192.306ZM196.482 20.72C197.208 20.72 197.805 20.4747 198.274 19.984C198.744 19.4827 198.978 18.832 198.978 18.032C198.978 17.5093 198.872 17.0453 198.658 16.64C198.445 16.2347 198.152 15.92 197.778 15.696C197.405 15.4613 196.973 15.344 196.482 15.344C195.757 15.344 195.16 15.5947 194.69 16.096C194.232 16.5973 194.002 17.2427 194.002 18.032C194.002 18.832 194.232 19.4827 194.69 19.984C195.16 20.4747 195.757 20.72 196.482 20.72ZM202.541 22V10.48H204.237V22H202.541ZM207.312 25.52L209.217 21.344H208.753L205.617 14.064H207.457L209.889 19.936L212.433 14.064H214.225L209.105 25.52H207.312Z" fill="black"/>
<path d="M21.6668 22.9999V21.4443C21.6668 20.6192 21.339 19.8279 20.7556 19.2444C20.1721 18.661 19.3808 18.3332 18.5556 18.3332H13.1111C12.286 18.3332 11.4947 18.661 10.9112 19.2444C10.3278 19.8279 10 20.6192 10 21.4443V22.9999" stroke="#6B42EE" stroke-width="2" stroke-linecap="round" stroke-linejoin="round"/>
<path d="M15.8328 15.2223C17.551 15.2223 18.9439 13.8294 18.9439 12.1111C18.9439 10.3929 17.551 9 15.8328 9C14.1146 9 12.7216 10.3929 12.7216 12.1111C12.7216 13.8294 14.1146 15.2223 15.8328 15.2223Z" stroke="#6B42EE" stroke-width="2" stroke-linecap="round" stroke-linejoin="round"/>
<path d="M24.7785 12.8888V17.5555" stroke="#6B42EE" stroke-width="2" stroke-linecap="round" stroke-linejoin="round"/>
<path d="M27.1119 15.2226H22.4452" stroke="#6B42EE" stroke-width="2" stroke-linecap="round" stroke-linejoin="round"/>
</svg>
